<svg id="Layer_1" data-name="Layer 1" xmlns="http://www.w3.org/2000/svg" viewBox="0 0 158.58 154.24">
  <defs>
    <style>
      .cls-1 {
        fill: #196b1c;
      }

      .cls-2 {
        fill: none;
        stroke: #fad961;
        stroke-width: 4px;
      }
    </style>
  </defs>
  <g id="SVGRepo_iconCarrier" data-name="SVGRepo iconCarrier">
    <path class="cls-1" d="M135.77,205.43l28.85,12.87,1.48,30.07a3.46,3.46,0,0,0,2.89,3.25l29.69,5,9.38,30.15a3.47,3.47,0,0,0,6.24.84l51.47-80.4.88,1,16.9-15a25.49,25.49,0,0,0,6.82-9.91,31.15,31.15,0,0,0,1.16-18,39,39,0,0,0-9-17.43,37.89,37.89,0,0,0-22.26-12.52,29.78,29.78,0,0,0-12,.53,25.53,25.53,0,0,0-10.62,5.64l-16.9,15,.87,1-85.92,41.6a3.52,3.52,0,0,0,.07,6.31Zm35.7,11.24,35-23.77L216,203.58,172.77,242Zm48.3-16.44-9-10.19,21.92-14.87,6.76,7.62Zm23-13.66,6.76,7.61-17.35,20-9-10.19Zm-66.68,59.21,43.27-38.42L228.84,218l-27.73,32Zm36.38,31.82-7.55-24.3,27.3-31.49,9.26,10.49Zm31.83-49.76L235.56,218l17.35-20,6.1,6.86Zm-1.2-80.17a17.4,17.4,0,0,1,7.24-3.82,22.75,22.75,0,0,1,13.24.78,30.6,30.6,0,0,1,12.79,8.67,29.61,29.61,0,0,1,7.74,18.41,21.51,21.51,0,0,1-1.34,8.59,17.41,17.41,0,0,1-4.66,6.73l-14.34,12.72-35-39.37ZM223.17,164.5l6.1,6.86-21.92,14.88-8.74-9.85Zm-29.29,14.18,9.26,10.41L168.65,212.5l-23.21-10.37Z" transform="translate(-133.77 -134.97)"/>
  </g>
  <path class="cls-2" d="M1013.77-283.7" transform="translate(-133.77 -134.97)"/>
</svg>
