<svg id="Layer_1" data-name="Layer 1" xmlns="http://www.w3.org/2000/svg" viewBox="0 0 614.33 346.31">
  <defs>
    <style>
      .cls-1 {
        fill: #196b1c;
        stroke: #196b1c;
        stroke-miterlimit: 1.3;
        stroke-width: 0px;
      }

      .cls-2 {
        fill: none;
        stroke: #fad961;
        stroke-width: 4px;
      }
    </style>
  </defs>
  <g id="SVGRepo_iconCarrier" data-name="SVGRepo iconCarrier">
    <path class="cls-1" d="M-10,248.13,18.85,261l1.48,30.07a3.48,3.48,0,0,0,2.89,3.25l29.69,5,9.38,30.15a3.47,3.47,0,0,0,6.24.84L120,249.91l.88,1,16.9-15A25.57,25.57,0,0,0,144.6,226a31.16,31.16,0,0,0,1.16-18,39,39,0,0,0-9-17.43,37.87,37.87,0,0,0-22.26-12.52,29.78,29.78,0,0,0-12,.53,25.64,25.64,0,0,0-10.62,5.64l-16.9,15,.87,1-85.92,41.6A3.47,3.47,0,0,0-12,245,3.47,3.47,0,0,0-10,248.13Zm35.7,11.24,35-23.77,9.48,10.68L27,284.71ZM74,242.93,65,232.74l21.92-14.87,6.76,7.62Zm23-13.66,6.76,7.61-17.35,20-9-10.19ZM30.32,288.48l43.27-38.42,9.48,10.68-27.73,32ZM66.7,320.3,59.15,296l27.3-31.49L95.71,275Zm31.83-49.76-8.74-9.85,17.35-20,6.1,6.86Zm-1.2-80.17a17.35,17.35,0,0,1,7.24-3.82,22.81,22.81,0,0,1,13.24.78A30.64,30.64,0,0,1,130.6,196a29.6,29.6,0,0,1,7.74,18.41A21.44,21.44,0,0,1,137,223a17.38,17.38,0,0,1-4.66,6.73L118,242.45,83,203.08ZM77.4,207.2l6.1,6.86L61.58,228.94l-8.74-9.85ZM48.11,221.38l9.26,10.41L22.88,255.2-.33,244.83Z" transform="translate(467.77 -177.7)"/>
  </g>
  <path class="cls-2" d="M.11,271.71c-89.49-16.22-136-1.69-162,15.35-38.13,24.93-37.78,58.71-78.81,67.59-29.82,6.46-49.68-7.13-99.18,1.47a223.64,223.64,0,0,0-39.4,10.59" transform="translate(467.77 -177.7)"/>
  <path class="cls-2" d="M19.59,329.08c-15,37.35-36.08,51.44-52.68,57.36-44.2,15.76-83.78-16.76-134.6,4.39-6.3,2.62-27.24,11.64-35.87,30.32-1.79,3.88-8.26,17.89-.44,27,11.32,13.25,42.78,4.9,44.28,9.5,2.1,6.5-55.26,39-119.11,30-15-2.12-51.39-7.28-73.05-30.32-8.65-9.2-11-17.09-23-23.75-16.82-9.35-37.8-8.09-53.13-5.48" transform="translate(467.77 -177.7)"/>
  <path class="cls-2" d="M13.4,291.44l-75.72-2.56-65.08,28.5-21.25,46.77-107.6,4.75-21.69,69.79L-399.7,413.85" transform="translate(467.77 -177.7)"/>
  <path class="cls-2" d="M28.89,306.42c-47.78-26.78-79.57-27.24-100.06-22.29-57,13.79-52.33,75.7-118.22,95.74-47.25,14.37-77.38-9.05-109.36,13.88-22.52,16.14-21.47,37.7-48.7,48.6-18,7.2-37,5.23-49.15,2.92" transform="translate(467.77 -177.7)"/>
  <path class="cls-2" d="M40,315.92c-9.94-1-63-5.48-104.93,24.85a107.45,107.45,0,0,0-43.39,70.52c-6.26,36.81,13.54,45.53,3.54,63.94-21.22,39-136.16,47.42-220.94,16.08A248.57,248.57,0,0,1-377.56,465" transform="translate(467.77 -177.7)"/>
  <path class="cls-2" d="M546-106" transform="translate(467.77 -177.7)"/>
  <polyline class="cls-2" points="467 85.24 309.38 78.3 241.19 131.65 98.62 107.89 0.77 148.82"/>
  <polyline class="cls-2" points="519.69 130.18 526.77 175.49 483.38 218.61 483.82 250.76 404.57 295.34 382.87 333.7 302.29 335.53 232.34 344.3 128.73 333.7 51.25 334.43"/>
</svg>
